<?xml version="1.0" encoding="UTF-8"?>
<svg width="100px" height="100px" viewBox="0 0 100 100" version="1.1" xmlns="http://www.w3.org/2000/svg" xmlns:xlink="http://www.w3.org/1999/xlink">
    <!-- Generator: Sketch 51.2 (57519) - http://www.bohemiancoding.com/sketch -->
    <title>food</title>
    <desc>Created with Sketch.</desc>
    <defs></defs>
    <g id="food" stroke="none" stroke-width="1" fill="none" fill-rule="evenodd">
        <rect fill="#D8E9CB" x="0" y="0" width="100" height="100"></rect>
        <g id="watermelon" transform="translate(82.176834, 58.109454) rotate(28.000000) translate(-82.176834, -58.109454) translate(72.176834, 53.109454)" fill-rule="nonzero" stroke="#B0D494">
            <path d="M1.82777813,0.526345729 C2.818113,5.43860647 5.54218696,7.89473684 10,7.89473684 C14.4578216,7.89473684 17.1818975,5.43859702 18.1722276,0.526317371 L19.0836858,0.526315789 C19.1399684,0.526315789 19.1960722,0.532651378 19.2509374,0.545202888 C19.6547075,0.637573361 19.9071467,1.03977476 19.8147763,1.44354485 L19.8147982,1.44354987 C18.5900958,6.79697276 15.3184964,9.47368421 10,9.47368421 C4.68150896,9.47368421 1.4099108,6.79697814 0.18520552,1.443566 C0.172654056,1.38870124 0.166318491,1.33259795 0.166318491,1.27631579 C0.166318491,0.862119636 0.502090816,0.52634731 0.91628697,0.52634731 L1.82777813,0.526345729 Z" id="Combined-Shape" stroke-width="1"></path>
            <path d="M1.05263158,0.526315789 L18.9473684,0.526315789" id="Path-4" stroke-width="1"></path>
            <path d="M10,6.31578947 C9.73636346,6.31578947 9.52264382,6.10206983 9.52264382,5.83843329 C9.52264382,5.57479675 9.73636346,4.7246022 10,4.7246022 C10.2636365,4.7246022 10.4773562,5.57479675 10.4773562,5.83843329 C10.4773562,6.10206983 10.2636365,6.31578947 10,6.31578947 Z M6.57894737,5.39912118 C6.35063143,5.26730291 6.27240461,4.97535645 6.40422288,4.74704051 C6.53604115,4.51872457 7.14622506,3.88929432 7.374541,4.02111259 C7.60285694,4.15293085 7.36284631,4.99608075 7.23102804,5.22439669 C7.09920977,5.45271264 6.80726331,5.53093945 6.57894737,5.39912118 Z M4.07456303,2.89473684 C3.94274476,2.6664209 4.02097158,2.37447444 4.24928752,2.24265617 C4.47760346,2.1108379 5.32075336,1.87082727 5.45257163,2.09914321 C5.58438989,2.32745915 4.95495964,2.93764306 4.7266437,3.06946133 C4.49832776,3.2012796 4.2063813,3.12305278 4.07456303,2.89473684 Z M15.925437,2.89473684 C15.7936187,3.12305278 15.5016722,3.2012796 15.2733563,3.06946133 C15.0450404,2.93764306 14.4156101,2.32745915 14.5474284,2.09914321 C14.6792466,1.87082727 15.5223965,2.1108379 15.7507125,2.24265617 C15.9790284,2.37447444 16.0572552,2.6664209 15.925437,2.89473684 Z M13.4210526,5.39912118 C13.1927367,5.53093945 12.9007902,5.45271264 12.768972,5.22439669 C12.6371537,4.99608075 12.3971431,4.15293085 12.625459,4.02111259 C12.8537749,3.88929432 13.4639589,4.51872457 13.5957771,4.74704051 C13.7275954,4.97535645 13.6493686,5.26730291 13.4210526,5.39912118 Z" id="Oval-5" stroke-width="0.5" fill="#B0D494"></path>
        </g>
        <g id="broccoli" transform="translate(46.000000, 17.000000)" fill-rule="nonzero" stroke="#B0D494">
            <path d="M6.97222057,10.7462927 L8.0089709,13.0271434 C8.03013173,13.0736972 8.08502533,13.0942823 8.13157918,13.0731215 C8.16128246,13.05962 8.18168722,13.0314817 8.18529036,12.9990534 L8.3954233,11.1078569 M9.01125185,11.1012667 L9.22211705,12.9990534 C9.22776424,13.0498781 9.27354375,13.0865018 9.32436846,13.0808546 C9.35679673,13.0772514 9.38493502,13.0568467 9.39843651,13.0271434 L10.6115843,10.3582182 M12.1296882,10.0411753 C11.1711434,11.7558453 10.5847041,13.4705152 10.3703704,15.1851852 C10.1711087,16.7792787 10.0522501,18.2929692 10.0137945,19.7262566 C10.007951,19.9440511 7.70140627,20.0015078 7.66291012,19.7024039 C7.54502387,18.7864621 7.33639951,17.2807225 7.03703704,15.1851852 C6.6136629,13.2800016 6.00880254,11.5563042 5.22245595,10.0140931" id="Path-10"></path>
            <path d="M2.08731542,8.395218 C0.878376839,8.04511034 0,6.98909237 0,5.74074074 C0,4.20661644 1.3265637,2.96296296 2.96296296,2.96296296 C3.16750937,1.29634786 4.5805137,0 6.2962963,0 C7.24267889,0 8.09694579,0.394394211 8.7037037,1.02778936 C9.31046162,0.394394211 10.1647285,0 11.1111111,0 C12.8335269,0 14.2508188,1.30639051 14.4261888,2.98237354 C15.896613,3.14560158 17.037037,4.31831477 17.037037,5.74074074 C17.037037,7.002653 16.1394732,8.06803033 14.9102078,8.40637693" id="Combined-Shape"></path>
            <path d="M14.5539946,5.56351393 C14.9493908,6.03561189 15.1851852,6.63077113 15.1851852,7.27756106 C15.1851852,8.81168536 13.8586215,10.0553388 12.2222222,10.0553388 C11.8065246,10.0553388 11.4108213,9.97508313 11.0517799,9.83019746 C10.5319609,10.6313636 9.59189361,11.1664499 8.51851852,11.1664499 C7.44514343,11.1664499 6.50507619,10.6313636 5.98525711,9.83019746 C5.6262157,9.97508313 5.23051244,10.0553388 4.81481481,10.0553388 C3.17841556,10.0553388 1.85185185,8.81168536 1.85185185,7.27756106 C1.85185185,6.62713137 2.09030756,6.02891511 2.48973279,5.55555556" id="Combined-Shape"></path>
        </g>
        <g id="carrot" transform="translate(85.784791, 15.948460) rotate(21.000000) translate(-85.784791, -15.948460) translate(81.284791, 5.948460)" fill-rule="nonzero" stroke="#B0D494">
            <path d="M4.49960082,5.88235294 L4.49960082,5.88235294 C5.99023648,5.49267884 7.51452871,6.38518452 7.90420281,7.87582019 C8.02010925,8.31920162 8.02500106,8.78430931 7.91844583,9.2300305 L5.47259384,19.4610454 C5.34418171,19.9981941 4.80463803,20.3295406 4.26748929,20.2011285 C3.90108335,20.1135346 3.61500008,19.8274513 3.52740616,19.4610454 L1.08137457,9.22927926 C0.723216084,7.73109996 1.64738555,6.22624085 3.14556485,5.86808236 C3.59122995,5.76154055 4.05628021,5.76644185 4.49960082,5.88235294 Z" id="Path-4" stroke-linecap="round" stroke-linejoin="round"></path>
            <polygon id="Path-3" stroke-linecap="round" stroke-linejoin="round" points="3.375 0 5.625 0 4.5 5.88235294"></polygon>
            <polygon id="Path-5" stroke-linecap="round" stroke-linejoin="round" points="4.5 5.88235294 3.375 1.17647059 1.125 2.35294118"></polygon>
            <polygon id="Path-6" stroke-linejoin="round" points="5.625 1.17647059 4.5 5.88235294 7.875 2.35294118"></polygon>
            <path d="M1.125,9.41176471 L4.5,9.41176471" id="Path-7" stroke-linecap="round"></path>
            <path d="M2.25,11.7647059 L4.5,11.7647059" id="Path-9" stroke-linecap="round"></path>
            <path d="M2.25,14.1176471 L4.5,14.1176471" id="Path-8" stroke-linecap="round"></path>
        </g>
        <g id="bacon" transform="translate(6.000000, 71.000000)" stroke="#B0D494" stroke-linejoin="round">
            <g id="1bacon" transform="translate(6.053271, 9.252255) rotate(-74.000000) translate(-6.053271, -9.252255) translate(-2.642381, 6.283505)">
                <path d="M0,0.659722222 L0,5.9375 C1.08695652,5.49768519 1.99275362,5.27777778 2.7173913,5.27777778 C3.80434783,5.27777778 4.38216302,5.9375 5.97826087,5.9375 C7.57435872,5.9375 7.60869565,5.27777778 8.69565217,5.27777778 C9.7826087,5.27777778 10.5634893,5.9375 11.9565217,5.9375 C13.3495542,5.9375 14.1304348,5.27777778 15.2173913,5.27777778 C15.942029,5.27777778 16.6666667,5.49768519 17.3913043,5.9375 L17.3913043,0.659722222 C16.2583261,0.219907407 15.352529,0 14.673913,0 C13.6954981,0 13.0219666,0.659722222 11.9565217,0.659722222 C10.9439593,0.659722222 9.70821459,0 8.69565217,0 C7.53430155,0 6.759327,0.659722222 5.43478261,0.659722222 C4.11023822,0.659722222 3.98504421,0 2.7173913,0 C1.87228937,0 0.966492268,0.219907407 0,0.659722222 Z" id="Path-3" fill-rule="nonzero"></path>
                <path d="M0,4.31818182 C1.08695652,3.95833333 1.99275362,3.77840909 2.7173913,3.77840909 C3.80434783,3.77840909 4.38216302,4.31818182 5.97826087,4.31818182 C7.57435872,4.31818182 7.60869565,3.77840909 8.69565217,3.77840909 C9.7826087,3.77840909 10.5634893,4.31818182 11.9565217,4.31818182 C13.3495542,4.31818182 14.1304348,3.77840909 15.2173913,3.77840909 C15.942029,3.77840909 16.6666667,3.95833333 17.3913043,4.31818182 M17.3913043,2.15909091 C16.2583261,1.79924242 15.352529,1.61931818 14.673913,1.61931818 C13.6954981,1.61931818 13.0219666,2.15909091 11.9565217,2.15909091 C10.9439593,2.15909091 9.70821459,1.61931818 8.69565217,1.61931818 C7.53430155,1.61931818 6.759327,2.15909091 5.43478261,2.15909091 C4.11023822,2.15909091 3.98504421,1.61931818 2.7173913,1.61931818 C1.87228937,1.61931818 0.966492268,1.79924242 0,2.15909091" id="Path-3" fill-rule="nonzero"></path>
            </g>
            <g id="1bacon" transform="translate(10.695776, 10.242859) rotate(-42.000000) translate(-10.695776, -10.242859) translate(2.000124, 7.274109)">
                <path d="M0.689226871,5.67978648 C1.47567309,5.41178068 2.1517279,5.27777778 2.7173913,5.27777778 C3.80434783,5.27777778 4.38216302,5.9375 5.97826087,5.9375 C7.57435872,5.9375 7.60869565,5.27777778 8.69565217,5.27777778 C9.7826087,5.27777778 10.5634893,5.9375 11.9565217,5.9375 C13.3495542,5.9375 14.1304348,5.27777778 15.2173913,5.27777778 C15.942029,5.27777778 16.6666667,5.49768519 17.3913043,5.9375 L17.3913043,0.659722222 C16.2583261,0.219907407 15.352529,0 14.673913,0 C13.6954981,0 13.0219666,0.659722222 11.9565217,0.659722222 C11.3085091,0.659722222 10.5690887,0.38952278 9.85525755,0.194964603" id="Path-3" fill-rule="nonzero"></path>
                <path d="M3.20427859,3.8151402 C4.01428881,3.93668844 4.63643071,4.31818182 5.97826087,4.31818182 C7.57435872,4.31818182 7.60869565,3.77840909 8.69565217,3.77840909 C9.7826087,3.77840909 10.5634893,4.31818182 11.9565217,4.31818182 C13.3495542,4.31818182 14.1304348,3.77840909 15.2173913,3.77840909 C15.942029,3.77840909 16.6666667,3.95833333 17.3913043,4.31818182 M17.3913043,2.15909091 C16.2583261,1.79924242 15.352529,1.61931818 14.673913,1.61931818 C13.6954981,1.61931818 13.0219666,2.15909091 11.9565217,2.15909091 C10.9439593,2.15909091 9.70821459,1.61931818 8.69565217,1.61931818 C7.78470136,1.61931818 7.11147473,1.95142216 6.2242771,2.09463261" id="Path-3" fill-rule="nonzero"></path>
            </g>
        </g>
        <g id="drumstick" transform="translate(15.992401, 15.646305) rotate(-152.000000) translate(-15.992401, -15.646305) translate(9.992401, 5.646305)" fill-rule="nonzero">
            <path d="M5,6 L5,3.48227779 C4.91834925,3.49395701 4.83488033,3.5 4.75,3.5 C3.78350169,3.5 3,2.71649831 3,1.75 C3,0.783501688 3.78350169,0 4.75,0 C5.23967204,0 5.68237074,0.201116803 6,0.525254316 C6.31762926,0.201116803 6.76032796,0 7.25,0 C8.21649831,0 9,0.783501688 9,1.75 C9,2.71649831 8.21649831,3.5 7.25,3.5 C7.16511967,3.5 7.08165075,3.49395701 7,3.48227779 L7,6" id="Combined-Shape" stroke="#B1D495"></path>
            <path d="M4.78,5 C1.18741523,8.58581212 0,11.4341965 0,13.6150441 C0,17.0668238 2.6862915,20 6,20 C9.3137085,20 12,17.065917 12,13.6150441 C12,10.1641713 7.66936281,5.49068651 7.18,5 C7.00227287,5.97670298 6.84227287,6.46505447 6.7,6.46505447 C6.3587805,6.46505447 6.24,5 6,5 C5.76,5 5.06654527,6.46505447 4.78,6.46505447 C4.56666667,6.46505447 4.56666667,5.97670298 4.78,5 Z" id="Combined-Shape" stroke="#B0D494" stroke-linejoin="round"></path>
        </g>
        <g id="lettuce" transform="translate(55.000000, 73.000000)" fill-rule="nonzero" stroke="#B0D494" stroke-linecap="round">
            <path d="M8.39453458,19.0482866 C8.03283246,19.0482866 7.3094282,18.6779162 6.58602395,17.9371755 C5.86261969,17.1964347 5.50091756,16.455694 4.77751331,14.6038421 C4.46975981,13.81602 4.21110346,12.8271028 4.00154424,11.6370906 C3.95912969,11.6396035 3.91635387,11.6408792 3.87325799,11.6408792 C2.77456386,11.6408792 1.88389629,10.8117768 1.88389629,9.78902731 C1.88389629,9.25797014 2.12403358,8.77912315 2.5087411,8.44144759 C2.1223589,8.07365093 1.88389629,7.5685893 1.88389629,7.01124953 C1.88389629,5.98327169 2.69513329,5.13314125 3.74947921,4.99412295 C3.71226875,4.86977668 3.69240692,4.73892058 3.69240692,4.60384213 C3.69240692,3.7856425 4.42113494,3.12236065 5.3200665,3.12236065 C5.38120599,3.12236065 5.44155816,3.12542888 5.50094726,3.13140541 C5.50091756,2.30416102 6.22964558,1.64087916 7.12857714,1.64087916 C7.54545029,1.64087916 7.92571989,1.7835229 8.21368352,2.01811052 C8.50164715,1.7835229 8.88191675,1.64087916 9.2987899,1.64087916 C10.1378855,1.64087916 10.8286821,2.21879919 10.9169279,2.96118324" id="Combined-Shape" stroke-linejoin="round" transform="translate(6.400412, 10.344583) rotate(-11.000000) translate(-6.400412, -10.344583) "></path>
            <path d="M13.5533046,9.82559222 L13.3829787,10 C13.8400785,9.97422707 14.2017806,10.0976839 14.4680851,10.3703704 C14.7343896,10.6430569 14.9755243,11.136884 15.1914894,11.8518519 C13.2624113,11.3580247 12.0567376,11.9753086 11.5744681,13.7037037 C11.2024237,14.7830917 11.3229911,16.2645732 11.9361702,18.1481481 C11.6950355,18.3950617 11.4539007,18.5185185 11.212766,18.5185185 C10.8510638,18.5185185 10.1276596,18.1481481 9.40425532,17.4074074 C8.68085106,16.6666667 8.31914894,15.9259259 7.59574468,14.0740741 C7.28799118,13.2862519 7.02933483,12.2973348 6.81977561,11.1073226 C6.77736106,11.1098355 6.73458524,11.1111111 6.69148936,11.1111111 C5.59279523,11.1111111 4.70212766,10.2820088 4.70212766,9.25925926 C4.70212766,8.72820208 4.94226496,8.24935509 5.32697247,7.91167953 C4.94059028,7.54388288 4.70212766,7.03882125 4.70212766,6.48148148 C4.70212766,5.45350364 5.51336467,4.60337319 6.56771059,4.4643549 C6.53050012,4.34000863 6.5106383,4.20915253 6.5106383,4.07407407 C6.5106383,3.25587444 7.23936631,2.59259259 8.13829787,2.59259259 C8.19943737,2.59259259 8.25978953,2.59566083 8.31917863,2.60163736 C8.31915884,2.59862456 8.31914894,2.59560963 8.31914894,2.59259259 C8.31914894,1.77439296 9.04787695,1.11111111 9.94680851,1.11111111 C10.3636817,1.11111111 10.7439513,1.25375485 11.0319149,1.48834247 C11.3198785,1.25375485 11.7001481,1.11111111 12.1170213,1.11111111 C13.0159528,1.11111111 13.7446809,1.77439296 13.7446809,2.59259259 C13.7446809,2.75163058 13.7171482,2.90481548 13.6661845,3.04841395 C14.1554864,3.42191729 14.4680851,3.99150797 14.4680851,4.62962963 C14.4680851,4.67280404 14.4666541,4.71566474 14.4638343,4.75817222 C15.1359681,5.43066563 15.5531915,6.36914497 15.5531915,7.40740741 C15.5531915,8.89760115 14.7289907,9.7261064 13.5533046,9.82559222 Z" id="Combined-Shape" stroke-linejoin="round" transform="translate(10.127660, 9.814815) rotate(9.000000) translate(-10.127660, -9.814815) "></path>
            <path d="M12.4154868,4.00269097 C11.5528157,4.09560046 10.9896683,4.33970575 10.7260448,4.73500682 C9.43987586,6.66360531 8.6657516,9.14750973 8.6657516,11.8581155 C8.6657516,14.3006142 9.29431141,16.5590398 10.3596802,18.3929686" id="Oval-4" stroke-linejoin="round" transform="translate(10.540619, 11.197830) rotate(2.000000) translate(-10.540619, -11.197830) "></path>
            <path d="M11.212766,3.33333333 L11.212766,4.44444444" id="Path-4"></path>
            <path d="M9.76595745,7.16666667 C10.3687943,6.83333333 10.8510638,6.66666667 11.212766,6.66666667 C11.5744681,6.66666667 11.9361702,6.66666667 12.2978723,6.66666667" id="Path-5" stroke-linejoin="round"></path>
            <path d="M7.23404255,7.40740741 C7.38505316,7.8767901 7.62618791,8.24716047 7.95744681,8.51851852 C8.2887057,8.78987657 8.65040783,8.91333336 9.04255319,8.88888889" id="Path-6"></path>
            <path d="M8.68085106,10.7407407 C9.10116362,10.4020912 9.46286575,10.1551777 9.76595745,10 C10.0690491,9.84482233 10.4307513,9.72136554 10.8510638,9.62962963" id="Path-8"></path>
            <path d="M8.68085106,13.7037037 C9.01409109,13.286177 9.25522585,13.0392635 9.40425532,12.962963 C9.55328479,12.8866625 9.79441954,12.7632057 10.1276596,12.5925926" id="Path-9"></path>
        </g>
        <g id="burger" transform="translate(26.000000, 46.000000)" fill-rule="nonzero" stroke="#B0D494">
            <rect id="Rectangle-3" x="0.689655172" y="12.5217391" width="17.9310345" height="3.47826087" rx="1.73913043"></rect>
            <path d="M17.9310345,10.4347826 C18.3119205,10.4347826 18.6206897,10.7462367 18.6206897,11.1304348 L18.6206897,11.826087 C18.6206897,12.210285 18.3119205,12.5217391 17.9310345,12.5217391 L1.37931034,12.5217391 C0.99842431,12.5217391 0.689655172,12.210285 0.689655172,11.826087 L0.689655172,11.1304348 C0.689655172,10.997912 0.726392267,10.8740442 0.790154269,10.768628" id="Rectangle"></path>
            <path d="M18.1379179,8.34784582 C18.4283592,8.34784582 18.6876713,8.53139797 18.7864469,8.80690217 C19.1548144,9.83435085 19.329447,10.3769777 19.3103448,10.4347826 C19.2776879,10.5336052 18.4705855,10.4325757 17.9310345,10.4347826 C17.2935681,10.43739 16.6090961,10.7536733 15.862069,11.1304348 C14.4827586,11.826087 14.4827586,10.4347826 13.1034483,10.4347826 C11.8025632,10.4347826 11.112908,11.1304348 10.3448276,11.1304348 C9.57674719,11.1304348 9.88761027,10.4347826 8.27586207,10.4347826 C6.66411387,10.4347826 6.20689655,11.826087 4.82758621,11.1304348 C3.90804598,10.6666667 3.2183908,10.4347826 2.75862069,10.4347826 L1.11510632,10.8492341 C0.745592592,10.9424158 0.371155013,10.7157996 0.278776581,10.3430728 C0.251321408,10.2322971 0.251321408,10.1164075 0.278776581,10.0056319 L0.559057866,8.87475783 C0.635810798,8.56507643 0.911661217,8.34782609 1.22812166,8.34782609" id="Rectangle"></path>
            <path d="M9.98748306,8.34782609 C9.91461479,8.34782609 9.80384458,8.34782609 9.65517241,8.34782609 L1.37931034,8.34782609 C0.99842431,8.34782609 0.689655172,8.036372 0.689655172,7.65217391 L0.689655172,6.95652174 C0.689655172,6.57232365 0.99842431,6.26086957 1.37931034,6.26086957 L17.9310345,6.26086957 C18.3119205,6.26086957 18.6206897,6.57232365 18.6206897,6.95652174 L18.6206897,7.65217391 C18.6206897,8.036372 18.3119205,8.34782609 17.9310345,8.34782609 C17.188798,8.34782609 15.6291053,8.34782609 14.0548259,8.34782609" id="Rectangle"></path>
            <polygon id="Path-3" stroke-linecap="round" stroke-linejoin="round" points="6.89655172 6.26086957 12.0689655 9.73913043 17.2413793 6.26086957"></polygon>
            <path d="M18.6206897,6.26086957 C18.6206897,2.9753834 14.6066909,0 9.65517241,0 C4.70365397,0 0.689655172,2.9753834 0.689655172,6.26086957 L18.6206897,6.26086957 Z" id="Oval-3" stroke-linejoin="round"></path>
        </g>
    </g>
</svg>